<svg xmlns="http://www.w3.org/2000/svg" viewBox="0 0 128 128" width="32" height="32">
  <rect width="128" height="128" rx="20" fill="#ffffff"/>
  <g transform="translate(16 112) scale(0.1)" fill="#1754cf">
    <path d="M560-564v-68q33-14 67.5-21t72.5-7q26 0 51 4t49 10v64q-24-9-48.5-13.5T700-604q-38 0-73 9.5T560-564Zm0 220v-68q33-14 67.5-21t72.5-7q26 0 51 4t49 10v64q-24-9-48.5-13.5T700-384q-38 0-73 9t-67 31Zm0-110v-68q33-14 67.5-21t72.5-7q26 0 51 4t49 10v64q-24-9-48.5-13.5T700-494q-38 0-73 9.5T560-454ZM260-320q47 0 91.5 10.5T440-278v-394q-41-24-87-36t-93-12q-36 0-71.5 7T120-692v396q35-12 69.5-18t70.5-6Zm260 42q44-21 88.5-31.5T700-320q36 0 70.5 6t69.5 18v-396q-33-14-68.5-21t-71.5-7q-47 0-93 12t-87 36v394Zm-40 118q-48-38-104-59t-116-21q-42 0-82.5 11T96-212q-28 15-52-3t-24-50v-468q0-19 9.5-34t26.5-22q43-20 88.5-30T260-829q58 0 113.5 15T480-775q51-24 106.5-39T700-829q51 0 97 10t89 30q17 7 25.5 22t8.5 34v468q0 32-24.5 50T843-212q-41-18-81-29t-82-11q-60 0-116 21t-104 59Z"/>
  </g>
</svg>
